<svg xmlns="http://www.w3.org/2000/svg" viewBox="0 0 48 48">
  <defs>
    <linearGradient id="r48" x1="0%" y1="0%" x2="100%" y2="100%">
      <stop offset="0%" stop-color="#0284c7"/>
      <stop offset="100%" stop-color="#075985"/>
    </linearGradient>
    <filter id="glow" x="-20%" y="-20%" width="140%" height="140%">
      <feDropShadow dx="0" dy="4" stdDeviation="4" flood-color="#0284c7" flood-opacity="0.4"/>
    </filter>
  </defs>
  <rect width="48" height="48" rx="12" fill="url(#r48)" filter="url(#glow)"/>
  <rect x="1.5" y="1.5" width="45" height="45" rx="10.5" fill="none" stroke="rgba(255,255,255,0.2)" stroke-width="1.5"/>
  <!-- Precise Precision Crafted 'R' -->
  <path d="M12 36V12h12.5c5 0 8.5 3.2 8.5 7.8 0 3.7-2.3 6.3-5.8 7.3L35 36h-6.2L22 27.6H17.4V36H12zm5.4-13.8h6.8c2.2 0 3.8-1.4 3.8-3.4s-1.6-3.4-3.8-3.4h-6.8v6.8z" fill="#f8fafc"/>
  <!-- Accent focal indicator -->
  <circle cx="37" cy="11" r="3.5" fill="#38bdf8"/>
  <circle cx="37" cy="11" r="1.5" fill="#ffffff"/>
</svg>